<svg viewBox="0 0 97.507133 47.732189">
    <path
       inkscape:export-ydpi="98"
       inkscape:export-xdpi="98"
       inkscape:export-filename="/home/paulalzq/NB/nb-src/icons/iso-v-blog.png"
       d="m 155.77515,118.33752 c -7.61532,0 -13.79474,6.1797 -13.79474,13.79503 0,7.61529 6.17942,13.79473 13.79474,13.79473 2.51209,0 4.86756,-0.67286 6.89667,-1.84749 v 0 0 c 2.02927,1.17449 4.38479,1.84721 6.89679,1.84721 7.6087,0 13.78334,-6.16893 13.79404,-13.77515 0,-0.003 0,-0.003 0,-0.003 a 0.28345265,0.28345265 0 0 0 0,-0.0171 0.28345265,0.28345265 0 0 0 -0.003,-0.0232 c -0.0122,-7.60451 -6.1866,-13.77177 -13.79406,-13.77177 -2.51204,0 -4.86765,0.67277 -6.89695,1.84736 v -2e-4 0 c -2.02914,-1.17468 -4.38458,-1.84755 -6.8967,-1.84755 z m 0,0.56686 c 2.29984,0 4.46185,0.58648 6.34534,1.61751 -0.038,0.0245 -0.0757,0.0493 -0.1136,0.0743 -0.0214,0.0136 -0.043,0.028 -0.0645,0.0421 -1.49371,0.99094 -2.75858,2.24912 -3.74678,3.68959 -0.003,0.003 -0.004,0.007 -0.007,0.0106 -0.028,0.0408 -0.0557,0.082 -0.0833,0.1233 -0.0156,0.0231 -0.0308,0.0461 -0.0462,0.0693 -0.0156,0.0234 -0.0307,0.0468 -0.0461,0.0703 -0.0301,0.0461 -0.06,0.0923 -0.0896,0.13889 -0.52305,0.82204 -0.96109,1.7033 -1.30269,2.63105 1.79687,-0.98511 3.85916,-1.54573 6.05209,-1.54573 2.19205,0 4.25359,0.56014 6.04996,1.54447 -0.2114,-0.57401 -0.45936,-1.13041 -0.74197,-1.66576 -0.004,-0.009 -0.009,-0.0156 -0.0122,-0.0237 -0.0259,-0.0489 -0.0523,-0.0977 -0.0788,-0.14633 -0.0136,-0.0245 -0.0269,-0.0489 -0.0403,-0.0734 -0.018,-0.0321 -0.0359,-0.0645 -0.0539,-0.0967 -0.0226,-0.0401 -0.0454,-0.0802 -0.0683,-0.11996 -0.009,-0.0136 -0.016,-0.0275 -0.024,-0.0414 -0.0312,-0.0533 -0.0624,-0.10648 -0.094,-0.15945 0,0 0,-0.003 -0.003,-0.003 0,-0.003 -0.003,-0.003 -0.003,-0.003 -1.07787,-1.79737 -2.56577,-3.35161 -4.38078,-4.51585 1.88353,-1.03113 4.04558,-1.61769 6.34553,-1.61769 7.30894,0 13.22816,5.91923 13.22816,13.22814 0,7.30894 -5.91922,13.22786 -13.22816,13.22786 -2.29992,0 -4.46191,-0.58645 -6.34546,-1.61751 1.81619,-1.16499 3.30483,-2.72049 4.38285,-4.51932 0.0319,-0.0533 0.0636,-0.1071 0.095,-0.16084 0.009,-0.0152 0.0173,-0.0295 0.0258,-0.0445 0.0224,-0.0387 0.0444,-0.0776 0.0663,-0.11648 0.02,-0.035 0.0398,-0.0707 0.0594,-0.10619 0.0106,-0.0185 0.0204,-0.037 0.0304,-0.0556 0.0289,-0.0524 0.0571,-0.10512 0.0852,-0.1581 0.003,-0.007 0.007,-0.0136 0.0106,-0.0213 0.28272,-0.53552 0.53077,-1.09213 0.74225,-1.66635 -1.79631,0.98451 -3.85793,1.54478 -6.05013,1.54478 -2.19308,0 -4.25545,-0.56074 -6.05239,-1.54594 0.36281,0.98547 0.83466,1.91837 1.40131,2.78366 0.0106,0.0169 0.0218,0.0336 0.0329,0.0503 0.0203,0.0308 0.041,0.0615 0.0618,0.092 0.0228,0.0338 0.0452,0.0678 0.0682,0.10127 0.009,0.0122 0.0156,0.0225 0.0234,0.0336 0.98648,1.43334 2.24716,2.68546 3.735,3.67251 0.0249,0.0166 0.0498,0.0325 0.0748,0.0489 0.0343,0.0225 0.0686,0.0452 0.10294,0.0676 -1.8835,1.03098 -4.04549,1.6174 -6.34534,1.6174 -7.30893,0 -13.22778,-5.91893 -13.22778,-13.22787 0,-7.30892 5.91885,-13.22816 13.22778,-13.22816 z m 6.89736,7.30743 c -2.28089,0 -4.41499,0.62454 -6.24203,1.71094 -0.40331,1.25845 -0.63098,2.59529 -0.65348,3.98189 -0.003,0.076 -0.003,0.15177 -0.003,0.22791 0,0.0761 0,0.15203 0.003,0.22791 0.0225,1.38669 0.25046,2.72352 0.65389,3.98206 1.82696,1.08633 3.9609,1.71088 6.24162,1.71088 2.2799,0 4.41322,-0.62412 6.23978,-1.7097 0.20363,-0.63501 0.36297,-1.28982 0.47322,-1.96114 4e-5,-1.9e-4 7e-5,0 1.1e-4,0 0.12179,-0.73675 0.18435,-1.48862 0.18438,-2.24924 -3e-5,-0.76232 -0.0631,-1.51579 -0.18525,-2.2541 -0.11028,-0.66989 -0.26929,-1.32332 -0.47243,-1.95705 -1.82659,-1.08555 -3.95988,-1.7096 -6.23981,-1.7096 z m -0.0122,3.09281 a 2.8237535,2.8237535 0 0 1 0.0122,0 2.8237535,2.8237535 0 0 1 2.82382,2.82374 2.8237535,2.8237535 0 0 1 -2.82382,2.82378 2.8237535,2.8237535 0 0 1 -2.82371,-2.82378 2.8237535,2.8237535 0 0 1 2.8117,-2.82374 z"
       style="color:#ffffff;font-style:normal;font-variant:normal;font-weight:normal;font-stretch:normal;font-size:medium;line-height:normal;font-family:sans-serif;font-variant-ligatures:normal;font-variant-position:normal;font-variant-caps:normal;font-variant-numeric:normal;font-variant-alternates:normal;font-feature-settings:normal;text-indent:0;text-align:start;text-decoration:none;text-decoration-line:none;text-decoration-style:solid;text-decoration-color:#000000;letter-spacing:normal;word-spacing:normal;text-transform:none;writing-mode:lr-tb;direction:ltr;text-orientation:mixed;dominant-baseline:auto;baseline-shift:baseline;text-anchor:start;white-space:normal;shape-padding:0;clip-rule:nonzero;display:inline;overflow:visible;visibility:visible;isolation:auto;mix-blend-mode:normal;color-interpolation:sRGB;color-interpolation-filters:linearRGB;solid-color:#000000;solid-opacity:1;vector-effect:none;fill:#1e1e1e;fill-opacity:1;fill-rule:nonzero;stroke:none;stroke-width:0.566905;stroke-linecap:round;stroke-linejoin:miter;stroke-miterlimit:4;stroke-dasharray:none;stroke-dashoffset:0;stroke-opacity:1;color-rendering:auto;image-rendering:auto;shape-rendering:auto;text-rendering:auto;enable-background:accumulate"
       id="path1773-5"
       inkscape:connector-curvature="0" />
    <path
       inkscape:export-ydpi="98"
       inkscape:export-xdpi="98"
       inkscape:export-filename="/home/paulalzq/NB/nb-src/icons/iso-v-blog.png"
       d="m 113.91803,151.26853 v 14.1273 h 1.63376 V 155.3818 l 10.18708,10.68678 v -14.12729 h -1.63376 v 10.01401 z m 45.51487,0 v 14.1273 h 1.63377 V 155.3818 l 10.18701,10.68678 v -14.12729 h -1.63377 v 10.01401 z m 19.70127,0 -6.24673,14.1273 h 1.82599 l 1.70643,-4.03639 h 5.41963 l 1.71551,4.03639 h 1.82597 z m -44.26546,0.48053 c -0.97386,0 -1.8772,0.17943 -2.71011,0.53822 -0.83291,0.34596 -1.5569,0.83288 -2.17197,1.46076 -0.61507,0.61507 -1.09557,1.34541 -1.44154,2.19112 -0.33316,0.83291 -0.49977,1.74273 -0.49977,2.7294 0,0.97385 0.16661,1.8836 0.49977,2.72931 0.34597,0.84572 0.82647,1.58254 1.44154,2.21042 0.61507,0.61507 1.33906,1.10198 2.17197,1.46077 0.83291,0.34598 1.73625,0.51898 2.71011,0.51898 0.98666,0 1.89008,-0.173 2.71017,-0.51898 0.8329,-0.35879 1.55689,-0.8457 2.17197,-1.46077 0.61507,-0.62788 1.08916,-1.3647 1.42232,-2.21042 0.34598,-0.84571 0.51899,-1.75546 0.51899,-2.72931 0,-0.98667 -0.17301,-1.89649 -0.51899,-2.7294 -0.33316,-0.84571 -0.80725,-1.57605 -1.42232,-2.19112 -0.61508,-0.62788 -1.33907,-1.1148 -2.17197,-1.46076 -0.82009,-0.35879 -1.72351,-0.53822 -2.71017,-0.53822 z m 9.12989,0.19223 v 13.45454 h 3.65196 c 0.87135,0 1.64661,-0.14097 2.32575,-0.42288 0.69194,-0.29472 1.23653,-0.73037 1.63375,-1.30699 0.41005,-0.58944 0.61503,-1.32626 0.61503,-2.21042 0,-0.61507 -0.11526,-1.14684 -0.34592,-1.59531 -0.23065,-0.4485 -0.55744,-0.81366 -0.9803,-1.09557 -0.41005,-0.29472 -0.89056,-0.51259 -1.44155,-0.65353 -0.0799,-0.0204 -0.16093,-0.0392 -0.24295,-0.0566 0.11674,-0.0349 0.22981,-0.0736 0.33906,-0.11633 0.60226,-0.23065 1.06995,-0.57019 1.40311,-1.01867 0.33316,-0.44849 0.49975,-0.98666 0.49975,-1.61454 0,-0.57663 -0.0961,-1.07636 -0.28832,-1.49921 -0.19221,-0.42286 -0.46773,-0.76888 -0.82653,-1.03797 -0.34597,-0.28191 -0.7624,-0.48689 -1.24933,-0.61502 -0.48692,-0.14096 -1.03151,-0.21144 -1.63376,-0.21143 z m 10.72522,0 v 13.45454 h 1.63377 v -13.45454 z m 32.29092,0 v 13.45454 h 1.63376 V 160.014 h 1.63799 l 3.74385,5.38183 h 2.0182 l -4.00903,-5.53246 c 0.33625,-0.0789 0.65394,-0.18888 0.95293,-0.32992 0.69196,-0.33316 1.23654,-0.80084 1.63376,-1.4031 0.41005,-0.61507 0.61502,-1.33259 0.61502,-2.15267 0,-0.83291 -0.20497,-1.5505 -0.61502,-2.15275 -0.39722,-0.60225 -0.9418,-1.06361 -1.63376,-1.38395 -0.67913,-0.33316 -1.4544,-0.4997 -2.32574,-0.49969 h -2.0182 z m 10.76366,0 v 13.45454 h 1.63377 v -13.45454 z m 3.84411,0 3.90184,6.40049 -4.38231,7.05405 h 1.92201 l 3.2676,-5.63171 3.17142,5.63171 h 1.92209 l -4.26705,-7.05405 3.97873,-6.40049 h -1.92209 l -2.86387,4.97817 -2.80628,-4.97817 z m -66.7538,1.44154 c 0.73038,0 1.40312,0.13456 2.01819,0.40366 0.62788,0.25628 1.17247,0.62145 1.63376,1.09556 0.4613,0.47412 0.81373,1.03791 1.05719,1.69142 0.25628,0.64069 0.38444,1.33907 0.38444,2.09509 0,0.75602 -0.12816,1.46079 -0.38444,2.1143 -0.24346,0.64069 -0.59589,1.1981 -1.05719,1.67221 -0.46129,0.47412 -1.00588,0.84569 -1.63376,1.11477 -0.61507,0.25629 -1.28781,0.38444 -2.01819,0.38444 -0.7304,0 -1.40947,-0.12815 -2.03735,-0.38444 -0.61506,-0.26908 -1.15325,-0.64065 -1.61454,-1.11477 -0.46131,-0.47411 -0.82013,-1.03152 -1.07642,-1.67221 -0.24345,-0.65351 -0.36521,-1.35828 -0.36521,-2.1143 0,-0.75602 0.12176,-1.4544 0.36521,-2.09509 0.25629,-0.65351 0.61511,-1.2173 1.07642,-1.69142 0.46129,-0.47411 0.99948,-0.83928 1.61454,-1.09556 0.62788,-0.2691 1.30695,-0.40366 2.03735,-0.40366 z m 10.76365,0 h 1.82599 c 0.67913,0 1.24295,0.17942 1.69143,0.5382 0.44848,0.34598 0.67275,0.83931 0.67275,1.48 0,0.42286 -0.10252,0.78161 -0.30754,1.07633 -0.20502,0.29473 -0.48697,0.519 -0.84575,0.67276 -0.35879,0.15376 -0.76241,0.23066 -1.21089,0.23066 h -1.82599 z m 43.01614,0 h 2.0182 c 0.57663,0 1.08276,0.10252 1.51843,0.30755 0.44849,0.20501 0.79443,0.49969 1.0379,0.88412 0.25627,0.38441 0.38443,0.85217 0.38443,1.40318 0,0.55098 -0.12816,1.01868 -0.38443,1.4031 -0.24347,0.38442 -0.58941,0.67911 -1.0379,0.88413 -0.43567,0.20502 -0.9418,0.30754 -1.51843,0.30754 h -2.0182 z m -9.51433,1.59533 2.06115,4.84362 h -4.117 z m -33.50181,3.82495 h 2.0182 c 0.43567,0 0.83288,0.0577 1.19167,0.17299 0.35879,0.10251 0.66636,0.2627 0.92264,0.48054 0.26909,0.21783 0.47406,0.48689 0.61502,0.80723 0.14095,0.32035 0.21143,0.68551 0.21143,1.09557 0,0.55098 -0.12808,1.01875 -0.38436,1.40317 -0.24346,0.38442 -0.58948,0.6791 -1.03797,0.88413 -0.43566,0.20501 -0.94181,0.30754 -1.51843,0.30754 h -2.0182 z"
       style="font-style:normal;font-variant:normal;font-weight:normal;font-stretch:normal;font-size:139.004px;line-height:1.25;font-family:Jost;-inkscape-font-specification:Jost;letter-spacing:0px;word-spacing:0px;fill:#1e1e1e;fill-opacity:1;stroke:none;stroke-width:0.480523"
       id="path1775"
       inkscape:connector-curvature="0" />
  </g>
</svg>
